<?xml version="1.0" encoding="UTF-8" standalone="no"?>
<svg
   xmlns:dc="http://purl.org/dc/elements/1.1/"
   xmlns:cc="http://creativecommons.org/ns#"
   xmlns:rdf="http://www.w3.org/1999/02/22-rdf-syntax-ns#"
   xmlns:svg="http://www.w3.org/2000/svg"
   xmlns="http://www.w3.org/2000/svg"
   xmlns:sodipodi="http://sodipodi.sourceforge.net/DTD/sodipodi-0.dtd"
   xmlns:inkscape="http://www.inkscape.org/namespaces/inkscape"
   sodipodi:docname="drawing.svg"
   inkscape:version="1.0 (4035a4fb49, 2020-05-01)"
   id="svg8"
   version="1.1"
   viewBox="0 0 117.39943 117.39942"
   height="117.39942mm"
   width="117.39943mm">
  <defs
     id="defs2">
    <linearGradient
       x1="146"
       y1="235"
       x2="404"
       y2="235"
       gradientUnits="userSpaceOnUse"
       id="color-13140527077">
      <stop
         offset="0"
         stop-color="#ac8400"
         id="stop10" />
      <stop
         offset="1"
         stop-color="#ffffff"
         id="stop12" />
    </linearGradient>
  </defs>
  <sodipodi:namedview
     inkscape:window-maximized="1"
     inkscape:window-y="-8"
     inkscape:window-x="-8"
     inkscape:window-height="715"
     inkscape:window-width="1366"
     showgrid="false"
     inkscape:document-rotation="0"
     inkscape:current-layer="layer1"
     inkscape:document-units="mm"
     inkscape:cy="580.42857"
     inkscape:cx="-18.142851"
     inkscape:zoom="0.35"
     inkscape:pageshadow="2"
     inkscape:pageopacity="0.0"
     borderopacity="1.0"
     bordercolor="#666666"
     pagecolor="#ffffff"
     id="base" />
  <metadata
     id="metadata5">
    <rdf:RDF>
      <cc:Work
         rdf:about="">
        <dc:format>image/svg+xml</dc:format>
        <dc:type
           rdf:resource="http://purl.org/dc/dcmitype/StillImage" />
        <dc:title></dc:title>
      </cc:Work>
    </rdf:RDF>
  </metadata>
  <g
     transform="translate(34.887204,5.4050597)"
     id="layer1"
     inkscape:groupmode="layer"
     inkscape:label="Layer 1">
    <path
       style="font-family:none;opacity:1;mix-blend-mode:normal;fill:#b21980;fill-opacity:1;fill-rule:evenodd;stroke:none;stroke-width:0.455038;stroke-linecap:butt;stroke-linejoin:miter;stroke-miterlimit:10;stroke-dasharray:none;stroke-dashoffset:0"
       id="path17"
       data-paper-data="{&quot;isBaseLogoContainer&quot;:true}"
       d="m 23.812466,-5.4050597 c -32.419031,0 -58.69967,26.2806427 -58.69967,58.6996767 0,32.419026 26.2806423,58.699743 58.69967,58.699743 32.419034,0 58.699763,-26.280717 58.699763,-58.699743 0,-32.419038 -26.280729,-58.6996767 -58.699763,-58.6996767 z m -42.7253,45.2771277 v -6.064899 h 14.4120183 v 24.97444 H -11.417222 V 39.872073 Z m 15.366083,-6.064899 h 6.5415468 v 6.064899 H -3.546751 Z m 8.5858247,0 v 24.97444 h 6.9507633 v -24.97444 z m 11.0052273,0 H 22.4838 l 9.335542,11.993127 V 56.566821 L 22.892497,45.084956 v 13.696653 h -6.848196 z m 16.728854,0.749717 0.988168,-0.749717 h 0.374859 l -1.363027,1.090471 z m 0,1.362765 2.691694,-2.112482 h 0.408961 l -3.100655,2.453239 z m 0,1.396872 4.429318,-3.509354 h 0.408961 l -4.838279,3.816008 z m 0,1.363028 6.16695,-4.872382 h 0.408961 l -6.575911,5.179036 z m 15.706842,-4.872382 h -7.870473 l 8.790433,14.480474 3.679864,-6.337444 z m 10.323711,0 -8.858641,15.366336 0.170502,0.272562 v 9.335542 h 6.950507 v -9.471963 l 9.471688,-15.502477 z m -26.030553,6.235151 6.84846,-5.41723 v 0.340495 l -6.84846,5.383389 z m 0,1.362765 6.84846,-5.417229 v 0.34076 l -6.84846,5.383127 z m 0,1.363027 6.84846,-5.417491 v 0.34076 l -6.84846,5.383386 z m 0,1.362769 6.84846,-5.383385 v 0.306655 l -6.84846,5.383385 z m 0,1.362773 6.84846,-5.383135 v 0.306656 l -6.84846,5.417228 z m 0,1.363028 6.84846,-5.383394 v 0.306655 l -6.84846,5.417229 z m 0,1.362752 6.84846,-5.383377 v 0.306652 l -6.84846,5.41749 z m 0,1.396875 6.84846,-5.417228 v 0.306654 l -6.84846,5.417238 z m 0,1.362774 6.84846,-5.417237 v 0.306658 l -6.84846,5.417238 z m 0,1.363027 6.84846,-5.417495 v 0.340764 l -6.84846,5.383391 z m 0,1.362769 6.84846,-5.417236 v 0.340764 l -6.84846,5.383135 z m 0,1.362773 6.84846,-5.417237 v 0.340766 l -6.84846,5.383114 z m 0,1.363028 6.84846,-5.38339 v 0.306643 l -6.84846,5.383389 z m 0.03407,1.362753 6.814362,-5.383115 v 0.306385 l -6.677955,5.281078 z m 0.647411,0.81767 6.166951,-4.838033 v 0.306664 l -5.962602,4.701875 h -0.102054 z m 6.166951,-3.1686 -4.224974,3.339106 h -0.374604 l 4.599573,-3.64577 z m 0,1.362769 -2.48735,1.976337 h -0.408695 l 2.896048,-2.282737 z m 0,1.363031 -0.749718,0.613306 h -0.408707 l 1.158425,-0.919968 z M -10.19999,68.670075 c -0.0036,-0.02184 -0.0019,-0.04351 0.0055,-0.06501 v -0.108353 c 0,-0.367749 0.04869,-0.728379 0.146048,-1.081887 0.097361,-0.353512 0.2418341,-0.669288 0.4329088,-0.947039 0.1910737,-0.277771 0.4256235,-0.501382 0.7033819,-0.670852 0.2776715,-0.169574 0.5969128,-0.254327 0.9577105,-0.254327 0.3824081,0 0.7033818,0.05417 0.9629168,0.162349 0.259798,0.108354 0.5195965,0.248862 0.7791315,0.421978 l 0.573482,-1.038929 c -0.3389342,-0.230643 -0.6924473,-0.40557 -1.0602764,-0.524801 -0.3680917,-0.119015 -0.7970967,-0.178573 -1.2877934,-0.178573 -0.5338261,0 -1.0027463,0.108353 -1.4067637,0.324878 -0.4040141,0.216315 -0.744772,0.50136 -1.022531,0.854614 -0.277758,0.353524 -0.497729,0.755708 -0.660167,1.206574 -0.162266,0.450887 -0.268649,0.910786 -0.319148,1.379695 -0.0072,0.05778 -0.01255,0.128127 -0.01617,0.211126 -0.0036,0.08289 -0.0055,0.182128 -0.0055,0.297546 0,0.569828 0.0794,1.105569 0.237929,1.606934 0.158791,0.501378 0.387873,0.937938 0.687242,1.309406 0.299369,0.371481 0.6671978,0.66538 1.1037502,0.881958 0.4365535,0.216337 0.9361055,0.324632 1.4986539,0.324632 0.4977281,0 0.946775,-0.0669 1.3474076,-0.200187 0.4003698,-0.133628 0.7700216,-0.304839 1.1089559,-0.514139 -0.1010052,-0.180392 -0.1874299,-0.349863 -0.2595387,-0.508656 -0.072198,-0.158568 -0.1659973,-0.342571 -0.2814042,-0.551875 -0.2741142,0.166137 -0.5628068,0.310291 -0.8658209,0.432914 -0.3030081,0.122623 -0.6383023,0.18404 -1.00639,0.18404 -0.3462231,0 -0.649232,-0.0614 -0.9087725,-0.18404 -0.2597981,-0.122623 -0.4852317,-0.288448 -0.6763064,-0.497732 -0.1913334,-0.209304 -0.3462232,-0.450871 -0.4654485,-0.724991 -0.1171364,-0.269688 -0.2009654,-0.55344 -0.2517244,-0.851245 0.0032,0.01026 0.0096,0.01925 0.01924,0.0289 0,0.0069 0.0036,0.01026 0.0107,0.01026 l -0.0107,-0.01026 c -0.0219,-0.05778 -0.038,-0.155128 -0.04894,-0.292336 -0.0107,-0.136896 -0.01617,-0.255891 -0.01617,-0.356899 0,-0.0289 -0.0019,-0.05417 -0.0055,-0.07568 z M 7.4824094,64.390173 c -0.02188,-0.0032 -0.047124,-0.0051 -0.075761,-0.0051 H 7.2983527 c -0.5626351,0 -1.0640084,0.111785 -1.5041195,0.335535 -0.4401974,0.223631 -0.8116707,0.524806 -1.1146831,0.903577 -0.3030087,0.378759 -0.533654,0.822352 -0.6924472,1.331008 -0.1587911,0.508654 -0.2381936,1.047784 -0.2381936,1.617611 0,0.577139 0.079404,1.120156 0.2381936,1.628812 0.1587915,0.508413 0.3894385,0.95407 0.6924472,1.336216 0.3030087,0.382421 0.6744857,0.685417 1.1146831,0.909033 0.4401111,0.223713 0.9414844,0.335551 1.5041195,0.335551 0.5626352,0 1.0640083,-0.111789 1.5041195,-0.335551 C 9.2424109,72.22322 9.6141458,71.920224 9.9168966,71.537803 10.219906,71.155657 10.450812,70.71 10.609605,70.201587 c 0.15879,-0.508656 0.23793,-1.051673 0.23793,-1.628812 0,-0.483146 -0.05753,-0.946776 -0.173117,-1.390356 C 10.559107,66.738799 10.391454,66.338427 10.171222,65.98127 9.9512528,65.624112 9.6771357,65.317453 9.3488751,65.061559 9.0206966,64.805411 8.6474017,64.623176 8.2289825,64.514898 c -0.021634,-0.0069 -0.06143,-0.0179 -0.1189566,-0.03235 -0.057789,-0.01376 -0.1174131,-0.02701 -0.1785807,-0.03802 l -0.1840446,-0.03251 c -0.061258,-0.01026 -0.1099453,-0.01547 -0.1460305,-0.01547 h -0.043236 c -0.0289,0 -0.05414,-0.0017 -0.075758,-0.0051 z m 29.7317586,0 c -0.02163,-0.0032 -0.04685,-0.0051 -0.07576,-0.0051 h -0.108297 c -0.56255,0 -1.063922,0.111957 -1.50412,0.335535 -0.439938,0.223631 -0.811415,0.524806 -1.114424,0.903577 -0.30301,0.378759 -0.533916,0.822352 -0.69271,1.331008 -0.158621,0.508654 -0.237929,1.04787 -0.237929,1.617611 0,0.577226 0.07932,1.120156 0.237929,1.628812 0.15879,0.508413 0.3897,0.95407 0.69271,1.336216 0.303005,0.382421 0.674486,0.685417 1.114424,0.909033 0.440198,0.22361 0.94157,0.335551 1.50412,0.335551 0.562803,0 1.064176,-0.111962 1.504119,-0.335551 0.440198,-0.223616 0.811674,-0.526612 1.114684,-0.909033 0.303008,-0.382146 0.533914,-0.827803 0.692449,-1.336216 0.15879,-0.508656 0.238192,-1.051673 0.238192,-1.628812 0,-0.483146 -0.05778,-0.946776 -0.173112,-1.390356 -0.115574,-0.443576 -0.283227,-0.843948 -0.5032,-1.201106 -0.220228,-0.357157 -0.494345,-0.663816 -0.822606,-0.91971 -0.328175,-0.256148 -0.701473,-0.438383 -1.119892,-0.546662 -0.02163,-0.0069 -0.06117,-0.0179 -0.118961,-0.03235 -0.05778,-0.01376 -0.117138,-0.02701 -0.178581,-0.03802 l -0.18404,-0.03251 c -0.06117,-0.01026 -0.109869,-0.01547 -0.146047,-0.01547 h -0.04324 c -0.0289,0 -0.05414,-0.0017 -0.07576,-0.0051 z m -16.696833,0.124515 h 1.222716 v 6.979663 h 3.073063 v 1.15789 h -4.295779 z m 32.999283,0 c 0.497992,0 0.925433,0.07206 1.282332,0.216578 0.357158,0.144123 0.649235,0.335298 0.876491,0.573494 0.227347,0.23809 0.395077,0.514038 0.503195,0.827803 0.108298,0.313679 0.16244,0.640117 0.16244,0.979319 0,0.53366 -0.13172,1.018891 -0.394905,1.455435 -0.263443,0.436301 -0.644025,0.78097 -1.141752,1.033215 0.346224,0.476118 0.717697,0.979322 1.114683,1.509575 0.396727,0.530275 0.779131,1.044415 1.146966,1.542134 H 55.59449 l -2.077859,-2.88927 h -1.514793 v 2.88927 H 50.768186 V 64.514688 Z M 6.264895,65.818625 c 0.2920814,-0.183781 0.6367382,-0.275943 1.0334655,-0.275943 0.4256239,0 0.7846039,0.09734 1.076677,0.292332 0.2920774,0.194739 0.5302698,0.439951 0.7140518,0.735673 0.1840447,0.295724 0.3175871,0.622161 0.4003686,0.979318 0.083032,0.357158 0.1246875,0.697922 0.1246875,1.022538 0,0.324874 -0.03982,0.667445 -0.1192194,1.027989 -0.079403,0.360802 -0.2108598,0.69089 -0.3949046,0.990258 -0.1840405,0.299369 -0.423797,0.546404 -0.7195198,0.741122 -0.2957228,0.194977 -0.6565212,0.292335 -1.0821451,0.292335 -0.4256239,0 -0.7845998,-0.09734 -1.076677,-0.292335 C 5.9293435,71.137194 5.6914138,70.890159 5.507365,70.59079 5.3235789,70.291422 5.1900365,69.961334 5.1069964,69.600532 5.0242214,69.239988 4.9825671,68.897417 4.9825671,68.572543 c 0,-0.353356 0.046951,-0.710406 0.1408366,-1.07121 0.093713,-0.360543 0.2342855,-0.685158 0.4219796,-0.973865 0.1874274,-0.288433 0.4274425,-0.524785 0.7195199,-0.708843 z m 29.731763,0 c 0.29234,-0.183781 0.636738,-0.275943 1.033466,-0.275943 0.425623,0 0.784604,0.09734 1.076677,0.292332 0.292336,0.194739 0.53027,0.439951 0.714318,0.735673 0.183786,0.295724 0.317329,0.622161 0.400369,0.979318 0.08304,0.357158 0.124428,0.697922 0.124428,1.022538 0,0.324874 -0.03982,0.667445 -0.11896,1.027989 -0.0794,0.360802 -0.211118,0.69089 -0.39516,0.990258 -0.183785,0.299369 -0.423805,0.546404 -0.719527,0.741122 -0.295723,0.194977 -0.656522,0.292335 -1.082145,0.292335 -0.42553,0 -0.784428,-0.0975 -1.076673,-0.292335 -0.292082,-0.194718 -0.53027,-0.441753 -0.714056,-0.741122 -0.184041,-0.299368 -0.317588,-0.629456 -0.400368,-0.990258 -0.08304,-0.360544 -0.12443,-0.703115 -0.12443,-1.027989 0,-0.35327 0.04685,-0.710406 0.14058,-1.07121 0.09372,-0.360543 0.234551,-0.685158 0.421978,-0.973865 0.18769,-0.288433 0.427442,-0.524785 0.719524,-0.708843 z m 16.005168,-0.146013 v 2.93249 h 1.59055 c 0.288691,0 0.530266,-0.03958 0.725247,-0.119015 0.194718,-0.07946 0.349866,-0.187682 0.465185,-0.324615 0.115316,-0.137241 0.198364,-0.295723 0.248866,-0.476134 0.05049,-0.180391 0.07576,-0.371464 0.07576,-0.573473 0,-0.461807 -0.122607,-0.817142 -0.367827,-1.066 -0.245479,-0.248874 -0.598732,-0.373302 -1.06054,-0.373302 z" />
  </g>
</svg>
